  0
SECTION
  2
BLOCKS
  0
ENDSEC
  0
SECTION
  2
ENTITIES
  0
LINE
  8
0
 10
-40
 11
-40
 20
-19
 21
19
  0
LINE
  8
0
 10
-40
 11
-39.891
 20
19
 21
20.04
  0
LINE
  8
0
 10
-39.891
 11
-39.568
 20
20.04
 21
21.034
  0
LINE
  8
0
 10
-39.568
 11
-39.045
 20
21.034
 21
21.939
  0
LINE
  8
0
 10
-39.045
 11
-38.346
 20
21.939
 21
22.716
  0
LINE
  8
0
 10
-38.346
 11
-37.5
 20
22.716
 21
23.33
  0
LINE
  8
0
 10
-37.5
 11
-36.545
 20
23.33
 21
23.755
  0
LINE
  8
0
 10
-36.545
 11
-35.523
 20
23.755
 21
23.973
  0
LINE
  8
0
 10
-35.523
 11
35.523
 20
23.973
 21
23.973
  0
LINE
  8
0
 10
35.523
 11
36.545
 20
23.973
 21
23.755
  0
LINE
  8
0
 10
36.545
 11
37.5
 20
23.755
 21
23.33
  0
LINE
  8
0
 10
37.5
 11
38.346
 20
23.33
 21
22.716
  0
LINE
  8
0
 10
38.346
 11
39.045
 20
22.716
 21
21.939
  0
LINE
  8
0
 10
39.045
 11
39.568
 20
21.939
 21
21.034
  0
LINE
  8
0
 10
39.568
 11
39.891
 20
21.034
 21
20.04
  0
LINE
  8
0
 10
39.891
 11
40
 20
20.04
 21
19
  0
LINE
  8
0
 10
40
 11
40
 20
19
 21
-19
  0
LINE
  8
0
 10
40
 11
39.891
 20
-19
 21
-20.04
  0
LINE
  8
0
 10
39.891
 11
39.568
 20
-20.04
 21
-21.034
  0
LINE
  8
0
 10
39.568
 11
39.045
 20
-21.034
 21
-21.939
  0
LINE
  8
0
 10
39.045
 11
38.346
 20
-21.939
 21
-22.716
  0
LINE
  8
0
 10
38.346
 11
37.5
 20
-22.716
 21
-23.33
  0
LINE
  8
0
 10
37.5
 11
36.545
 20
-23.33
 21
-23.755
  0
LINE
  8
0
 10
36.545
 11
35.523
 20
-23.755
 21
-23.973
  0
LINE
  8
0
 10
35.523
 11
1
 20
-23.973
 21
-23.973
  0
LINE
  8
0
 10
1
 11
1
 20
-23.973
 21
-15
  0
LINE
  8
0
 10
1
 11
0.956
 20
-15
 21
-14.584
  0
LINE
  8
0
 10
0.956
 11
0.827
 20
-14.584
 21
-14.187
  0
LINE
  8
0
 10
0.827
 11
0.618
 20
-14.187
 21
-13.824
  0
LINE
  8
0
 10
0.618
 11
0.338
 20
-13.824
 21
-13.514
  0
LINE
  8
0
 10
0.338
 11
0
 20
-13.514
 21
-13.268
  0
LINE
  8
0
 10
0
 11
-0.382
 20
-13.268
 21
-13.098
  0
LINE
  8
0
 10
-0.382
 11
-0.791
 20
-13.098
 21
-13.011
  0
LINE
  8
0
 10
-0.791
 11
-1
 20
-13.011
 21
-13.011
  0
LINE
  8
0
 10
-1
 11
-1
 20
-13.011
 21
-8
  0
LINE
  8
0
 10
-1
 11
-1.044
 20
-8
 21
-7.584
  0
LINE
  8
0
 10
-1.044
 11
-1.173
 20
-7.584
 21
-7.187
  0
LINE
  8
0
 10
-1.173
 11
-1.382
 20
-7.187
 21
-6.824
  0
LINE
  8
0
 10
-1.382
 11
-1.662
 20
-6.824
 21
-6.514
  0
LINE
  8
0
 10
-1.662
 11
-2
 20
-6.514
 21
-6.268
  0
LINE
  8
0
 10
-2
 11
-2.382
 20
-6.268
 21
-6.098
  0
LINE
  8
0
 10
-2.382
 11
-2.791
 20
-6.098
 21
-6.011
  0
LINE
  8
0
 10
-2.791
 11
-22.209
 20
-6.011
 21
-6.011
  0
LINE
  8
0
 10
-22.209
 11
-22.618
 20
-6.011
 21
-6.098
  0
LINE
  8
0
 10
-22.618
 11
-23
 20
-6.098
 21
-6.268
  0
LINE
  8
0
 10
-23
 11
-23.338
 20
-6.268
 21
-6.514
  0
LINE
  8
0
 10
-23.338
 11
-23.618
 20
-6.514
 21
-6.824
  0
LINE
  8
0
 10
-23.618
 11
-23.827
 20
-6.824
 21
-7.187
  0
LINE
  8
0
 10
-23.827
 11
-23.956
 20
-7.187
 21
-7.584
  0
LINE
  8
0
 10
-23.956
 11
-24
 20
-7.584
 21
-8
  0
LINE
  8
0
 10
-24
 11
-24
 20
-8
 21
-13.011
  0
LINE
  8
0
 10
-24
 11
-24.209
 20
-13.011
 21
-13.011
  0
LINE
  8
0
 10
-24.209
 11
-24.618
 20
-13.011
 21
-13.098
  0
LINE
  8
0
 10
-24.618
 11
-25
 20
-13.098
 21
-13.268
  0
LINE
  8
0
 10
-25
 11
-25.338
 20
-13.268
 21
-13.514
  0
LINE
  8
0
 10
-25.338
 11
-25.618
 20
-13.514
 21
-13.824
  0
LINE
  8
0
 10
-25.618
 11
-25.827
 20
-13.824
 21
-14.187
  0
LINE
  8
0
 10
-25.827
 11
-25.956
 20
-14.187
 21
-14.584
  0
LINE
  8
0
 10
-25.956
 11
-26
 20
-14.584
 21
-15
  0
LINE
  8
0
 10
-26
 11
-26
 20
-15
 21
-23.973
  0
LINE
  8
0
 10
-26
 11
-35.523
 20
-23.973
 21
-23.973
  0
LINE
  8
0
 10
-35.523
 11
-36.545
 20
-23.973
 21
-23.755
  0
LINE
  8
0
 10
-36.545
 11
-37.5
 20
-23.755
 21
-23.33
  0
LINE
  8
0
 10
-37.5
 11
-38.346
 20
-23.33
 21
-22.716
  0
LINE
  8
0
 10
-38.346
 11
-39.045
 20
-22.716
 21
-21.939
  0
LINE
  8
0
 10
-39.045
 11
-39.568
 20
-21.939
 21
-21.034
  0
LINE
  8
0
 10
-39.568
 11
-39.891
 20
-21.034
 21
-20.04
  0
LINE
  8
0
 10
-39.891
 11
-40
 20
-20.04
 21
-19
  0
LINE
  8
0
 10
-36.75
 11
-36.75
 20
13
 21
17
  0
LINE
  8
0
 10
-36.75
 11
-24.25
 20
17
 21
17
  0
LINE
  8
0
 10
-24.25
 11
-24.25
 20
17
 21
13
  0
LINE
  8
0
 10
-24.25
 11
-36.75
 20
13
 21
13
  0
LINE
  8
0
 10
-36.5
 11
-36.467
 20
-19
 21
-18.688
  0
LINE
  8
0
 10
-36.467
 11
-36.37
 20
-18.688
 21
-18.39
  0
LINE
  8
0
 10
-36.37
 11
-36.214
 20
-18.39
 21
-18.118
  0
LINE
  8
0
 10
-36.214
 11
-36.004
 20
-18.118
 21
-17.885
  0
LINE
  8
0
 10
-36.004
 11
-35.75
 20
-17.885
 21
-17.701
  0
LINE
  8
0
 10
-35.75
 11
-35.464
 20
-17.701
 21
-17.573
  0
LINE
  8
0
 10
-35.464
 11
-35.157
 20
-17.573
 21
-17.508
  0
LINE
  8
0
 10
-35.157
 11
-34.843
 20
-17.508
 21
-17.508
  0
LINE
  8
0
 10
-34.843
 11
-34.536
 20
-17.508
 21
-17.573
  0
LINE
  8
0
 10
-34.536
 11
-34.25
 20
-17.573
 21
-17.701
  0
LINE
  8
0
 10
-34.25
 11
-33.996
 20
-17.701
 21
-17.885
  0
LINE
  8
0
 10
-33.996
 11
-33.786
 20
-17.885
 21
-18.118
  0
LINE
  8
0
 10
-33.786
 11
-33.63
 20
-18.118
 21
-18.39
  0
LINE
  8
0
 10
-33.63
 11
-33.533
 20
-18.39
 21
-18.688
  0
LINE
  8
0
 10
-33.533
 11
-33.5
 20
-18.688
 21
-19
  0
LINE
  8
0
 10
-33.5
 11
-33.533
 20
-19
 21
-19.312
  0
LINE
  8
0
 10
-33.533
 11
-33.63
 20
-19.312
 21
-19.61
  0
LINE
  8
0
 10
-33.63
 11
-33.786
 20
-19.61
 21
-19.882
  0
LINE
  8
0
 10
-33.786
 11
-33.996
 20
-19.882
 21
-20.115
  0
LINE
  8
0
 10
-33.996
 11
-34.25
 20
-20.115
 21
-20.299
  0
LINE
  8
0
 10
-34.25
 11
-34.536
 20
-20.299
 21
-20.427
  0
LINE
  8
0
 10
-34.536
 11
-34.843
 20
-20.427
 21
-20.492
  0
LINE
  8
0
 10
-34.843
 11
-35.157
 20
-20.492
 21
-20.492
  0
LINE
  8
0
 10
-35.157
 11
-35.464
 20
-20.492
 21
-20.427
  0
LINE
  8
0
 10
-35.464
 11
-35.75
 20
-20.427
 21
-20.299
  0
LINE
  8
0
 10
-35.75
 11
-36.004
 20
-20.299
 21
-20.115
  0
LINE
  8
0
 10
-36.004
 11
-36.214
 20
-20.115
 21
-19.882
  0
LINE
  8
0
 10
-36.214
 11
-36.37
 20
-19.882
 21
-19.61
  0
LINE
  8
0
 10
-36.37
 11
-36.467
 20
-19.61
 21
-19.312
  0
LINE
  8
0
 10
-36.467
 11
-36.5
 20
-19.312
 21
-19
  0
LINE
  8
0
 10
24.25
 11
24.25
 20
13
 21
17
  0
LINE
  8
0
 10
24.25
 11
36.75
 20
17
 21
17
  0
LINE
  8
0
 10
36.75
 11
36.75
 20
17
 21
13
  0
LINE
  8
0
 10
36.75
 11
24.25
 20
13
 21
13
  0
LINE
  8
0
 10
33.5
 11
33.533
 20
-19
 21
-18.688
  0
LINE
  8
0
 10
33.533
 11
33.63
 20
-18.688
 21
-18.39
  0
LINE
  8
0
 10
33.63
 11
33.786
 20
-18.39
 21
-18.118
  0
LINE
  8
0
 10
33.786
 11
33.996
 20
-18.118
 21
-17.885
  0
LINE
  8
0
 10
33.996
 11
34.25
 20
-17.885
 21
-17.701
  0
LINE
  8
0
 10
34.25
 11
34.536
 20
-17.701
 21
-17.573
  0
LINE
  8
0
 10
34.536
 11
34.843
 20
-17.573
 21
-17.508
  0
LINE
  8
0
 10
34.843
 11
35.157
 20
-17.508
 21
-17.508
  0
LINE
  8
0
 10
35.157
 11
35.464
 20
-17.508
 21
-17.573
  0
LINE
  8
0
 10
35.464
 11
35.75
 20
-17.573
 21
-17.701
  0
LINE
  8
0
 10
35.75
 11
36.004
 20
-17.701
 21
-17.885
  0
LINE
  8
0
 10
36.004
 11
36.214
 20
-17.885
 21
-18.118
  0
LINE
  8
0
 10
36.214
 11
36.37
 20
-18.118
 21
-18.39
  0
LINE
  8
0
 10
36.37
 11
36.467
 20
-18.39
 21
-18.688
  0
LINE
  8
0
 10
36.467
 11
36.5
 20
-18.688
 21
-19
  0
LINE
  8
0
 10
36.5
 11
36.467
 20
-19
 21
-19.312
  0
LINE
  8
0
 10
36.467
 11
36.37
 20
-19.312
 21
-19.61
  0
LINE
  8
0
 10
36.37
 11
36.214
 20
-19.61
 21
-19.882
  0
LINE
  8
0
 10
36.214
 11
36.004
 20
-19.882
 21
-20.115
  0
LINE
  8
0
 10
36.004
 11
35.75
 20
-20.115
 21
-20.299
  0
LINE
  8
0
 10
35.75
 11
35.464
 20
-20.299
 21
-20.427
  0
LINE
  8
0
 10
35.464
 11
35.157
 20
-20.427
 21
-20.492
  0
LINE
  8
0
 10
35.157
 11
34.843
 20
-20.492
 21
-20.492
  0
LINE
  8
0
 10
34.843
 11
34.536
 20
-20.492
 21
-20.427
  0
LINE
  8
0
 10
34.536
 11
34.25
 20
-20.427
 21
-20.299
  0
LINE
  8
0
 10
34.25
 11
33.996
 20
-20.299
 21
-20.115
  0
LINE
  8
0
 10
33.996
 11
33.786
 20
-20.115
 21
-19.882
  0
LINE
  8
0
 10
33.786
 11
33.63
 20
-19.882
 21
-19.61
  0
LINE
  8
0
 10
33.63
 11
33.533
 20
-19.61
 21
-19.312
  0
LINE
  8
0
 10
33.533
 11
33.5
 20
-19.312
 21
-19
  0
LINE
  8
0
 10
45
 11
45
 20
-20
 21
-2.989
  0
LINE
  8
0
 10
45
 11
48.209
 20
-2.989
 21
-2.989
  0
LINE
  8
0
 10
48.209
 11
48.618
 20
-2.989
 21
-2.902
  0
LINE
  8
0
 10
48.618
 11
49
 20
-2.902
 21
-2.732
  0
LINE
  8
0
 10
49
 11
49.338
 20
-2.732
 21
-2.486
  0
LINE
  8
0
 10
49.338
 11
49.618
 20
-2.486
 21
-2.176
  0
LINE
  8
0
 10
49.618
 11
49.827
 20
-2.176
 21
-1.813
  0
LINE
  8
0
 10
49.827
 11
49.956
 20
-1.813
 21
-1.416
  0
LINE
  8
0
 10
49.956
 11
50
 20
-1.416
 21
-1
  0
LINE
  8
0
 10
50
 11
50
 20
-1
 21
3
  0
LINE
  8
0
 10
50
 11
49.956
 20
3
 21
3.416
  0
LINE
  8
0
 10
49.956
 11
49.827
 20
3.416
 21
3.813
  0
LINE
  8
0
 10
49.827
 11
49.618
 20
3.813
 21
4.176
  0
LINE
  8
0
 10
49.618
 11
49.338
 20
4.176
 21
4.486
  0
LINE
  8
0
 10
49.338
 11
49
 20
4.486
 21
4.732
  0
LINE
  8
0
 10
49
 11
48.618
 20
4.732
 21
4.902
  0
LINE
  8
0
 10
48.618
 11
48.209
 20
4.902
 21
4.989
  0
LINE
  8
0
 10
48.209
 11
45
 20
4.989
 21
4.989
  0
LINE
  8
0
 10
45
 11
45
 20
4.989
 21
17
  0
LINE
  8
0
 10
45
 11
74
 20
17
 21
17
  0
LINE
  8
0
 10
74
 11
74
 20
17
 21
-15
  0
LINE
  8
0
 10
74
 11
73.891
 20
-15
 21
-16.04
  0
LINE
  8
0
 10
73.891
 11
73.568
 20
-16.04
 21
-17.034
  0
LINE
  8
0
 10
73.568
 11
73.045
 20
-17.034
 21
-17.939
  0
LINE
  8
0
 10
73.045
 11
72.346
 20
-17.939
 21
-18.716
  0
LINE
  8
0
 10
72.346
 11
71.5
 20
-18.716
 21
-19.33
  0
LINE
  8
0
 10
71.5
 11
70.545
 20
-19.33
 21
-19.755
  0
LINE
  8
0
 10
70.545
 11
69.523
 20
-19.755
 21
-19.973
  0
LINE
  8
0
 10
69.523
 11
69
 20
-19.973
 21
-19.973
  0
LINE
  8
0
 10
69
 11
69
 20
-19.973
 21
-20
  0
LINE
  8
0
 10
69
 11
45
 20
-20
 21
-20
  0
LINE
  8
0
 10
67.5
 11
67.533
 20
-15
 21
-14.688
  0
LINE
  8
0
 10
67.533
 11
67.63
 20
-14.688
 21
-14.39
  0
LINE
  8
0
 10
67.63
 11
67.786
 20
-14.39
 21
-14.118
  0
LINE
  8
0
 10
67.786
 11
67.996
 20
-14.118
 21
-13.885
  0
LINE
  8
0
 10
67.996
 11
68.25
 20
-13.885
 21
-13.701
  0
LINE
  8
0
 10
68.25
 11
68.536
 20
-13.701
 21
-13.573
  0
LINE
  8
0
 10
68.536
 11
68.843
 20
-13.573
 21
-13.508
  0
LINE
  8
0
 10
68.843
 11
69.157
 20
-13.508
 21
-13.508
  0
LINE
  8
0
 10
69.157
 11
69.464
 20
-13.508
 21
-13.573
  0
LINE
  8
0
 10
69.464
 11
69.75
 20
-13.573
 21
-13.701
  0
LINE
  8
0
 10
69.75
 11
70.004
 20
-13.701
 21
-13.885
  0
LINE
  8
0
 10
70.004
 11
70.214
 20
-13.885
 21
-14.118
  0
LINE
  8
0
 10
70.214
 11
70.37
 20
-14.118
 21
-14.39
  0
LINE
  8
0
 10
70.37
 11
70.467
 20
-14.39
 21
-14.688
  0
LINE
  8
0
 10
70.467
 11
70.5
 20
-14.688
 21
-15
  0
LINE
  8
0
 10
70.5
 11
70.467
 20
-15
 21
-15.312
  0
LINE
  8
0
 10
70.467
 11
70.37
 20
-15.312
 21
-15.61
  0
LINE
  8
0
 10
70.37
 11
70.214
 20
-15.61
 21
-15.882
  0
LINE
  8
0
 10
70.214
 11
70.004
 20
-15.882
 21
-16.115
  0
LINE
  8
0
 10
70.004
 11
69.75
 20
-16.115
 21
-16.299
  0
LINE
  8
0
 10
69.75
 11
69.464
 20
-16.299
 21
-16.427
  0
LINE
  8
0
 10
69.464
 11
69.157
 20
-16.427
 21
-16.492
  0
LINE
  8
0
 10
69.157
 11
68.843
 20
-16.492
 21
-16.492
  0
LINE
  8
0
 10
68.843
 11
68.536
 20
-16.492
 21
-16.427
  0
LINE
  8
0
 10
68.536
 11
68.25
 20
-16.427
 21
-16.299
  0
LINE
  8
0
 10
68.25
 11
67.996
 20
-16.299
 21
-16.115
  0
LINE
  8
0
 10
67.996
 11
67.786
 20
-16.115
 21
-15.882
  0
LINE
  8
0
 10
67.786
 11
67.63
 20
-15.882
 21
-15.61
  0
LINE
  8
0
 10
67.63
 11
67.533
 20
-15.61
 21
-15.312
  0
LINE
  8
0
 10
67.533
 11
67.5
 20
-15.312
 21
-15
  0
ENDSEC
  0
SECTION
  2
OBJECTS
  0
DICTIONARY
  0
ENDSEC
  0
EOF
